<?xml version="1.0" encoding="utf-8"?>
<!-- Generator: Adobe Illustrator 26.2.1, SVG Export Plug-In . SVG Version: 6.00 Build 0)  -->
<svg version="1.1" id="Layer_1" xmlns="http://www.w3.org/2000/svg" xmlns:xlink="http://www.w3.org/1999/xlink" x="0px" y="0px"
	 viewBox="0 0 148.7 40.1" style="enable-background:new 0 0 148.7 40.1;" xml:space="preserve">
<style type="text/css">
	.st0{clip-path:url(#SVGID_00000036209003249978116700000003850624194012870829_);fill:#373535;}
	.st1{clip-path:url(#SVGID_00000036209003249978116700000003850624194012870829_);}
	.st2{clip-path:url(#SVGID_00000131327641565296112680000010846237791775081359_);fill:#373535;}
</style>
<g>
	<g>
		<defs>
			<rect id="SVGID_1_" x="-3.7" y="-6.6" width="148.5" height="50.7"/>
		</defs>
		<clipPath id="SVGID_00000035508984610854781080000002311658658572923282_">
			<use xlink:href="#SVGID_1_"  style="overflow:visible;"/>
		</clipPath>
		<polygon style="clip-path:url(#SVGID_00000035508984610854781080000002311658658572923282_);fill:#373535;" points="97.6,9.1 
			93,19.4 91.7,9.1 86.9,9.1 82.8,19.4 81,9.1 74.7,9.1 78.6,26.3 84,26.3 87.8,16.5 88.3,16.5 89.5,26.3 94.8,26.3 103.7,9.1 		"/>
		<polygon style="clip-path:url(#SVGID_00000035508984610854781080000002311658658572923282_);fill:#373535;" points="49.4,3.4 
			45.2,30.2 50.7,30.2 54.9,3.4 		"/>
		<g style="clip-path:url(#SVGID_00000035508984610854781080000002311658658572923282_);">
			<defs>
				<rect id="SVGID_00000168085098874475278620000017569443382513364368_" x="-3.7" y="-6.6" width="148.5" height="50.7"/>
			</defs>
			<clipPath id="SVGID_00000091015591275319996020000006373191711546467984_">
				<use xlink:href="#SVGID_00000168085098874475278620000017569443382513364368_"  style="overflow:visible;"/>
			</clipPath>
			<path style="clip-path:url(#SVGID_00000091015591275319996020000006373191711546467984_);fill:#373535;" d="M68.5,17.7
				c-0.6,3-2.4,4.6-5.1,4.6c-1.2,0-2.1-0.4-2.7-1.1c-0.7-0.9-0.9-2.1-0.6-3.6c0.6-2.9,2.5-4.7,5.1-4.7c1.1,0,2,0.4,2.6,1.1
				C68.6,14.9,68.8,16.2,68.5,17.7 M65.8,8.5c-4.9,0-10.7,2.9-11.6,9.2c-0.4,2.5,0.1,4.7,1.5,6.3c1.6,1.8,4.2,2.9,7.2,2.9
				c4.9,0,10.7-2.9,11.6-9.2c0.4-2.5-0.1-4.7-1.5-6.3C71.4,9.5,68.9,8.5,65.8,8.5"/>
			<polygon style="clip-path:url(#SVGID_00000091015591275319996020000006373191711546467984_);fill:#373535;" points="5.4,0.1 
				0.9,26.3 8,26.3 9.9,15.5 17,15.5 17.9,10.6 10.7,10.6 11.7,5.2 20.9,5.2 21.7,0.1 			"/>
			<path style="clip-path:url(#SVGID_00000091015591275319996020000006373191711546467984_);fill:#373535;" d="M24.1,15.2
				c0.8-2,2.5-3.2,4.7-3.2c2,0,3.4,1.3,3.5,3.3l0,0.3H24L24.1,15.2z M27.2,22.9c-1.4,0-2.4-0.4-3.1-1.1c-0.6-0.7-0.8-1.8-0.6-3.1
				l0-0.2h13.8l0.1-0.4c0.5-2.9,0-5.3-1.4-6.9c-1.4-1.7-3.8-2.6-6.8-2.6c-6,0-10.5,3.6-11.4,9.2c-0.4,2.6,0.1,4.8,1.4,6.4
				c1.5,1.8,4.1,2.8,7.4,2.8c3.1,0,7.5-1.5,9.9-5.6h-5.5C29.9,22.4,28.8,22.9,27.2,22.9"/>
			<path style="clip-path:url(#SVGID_00000091015591275319996020000006373191711546467984_);fill:#373535;" d="M131.5,15.5
				c-0.1,0-0.2,0-0.3-0.1c-0.9-0.2-2.7-0.5-2.4-1.8c0.2-1,1.5-1.4,2.4-1.4c1,0,2.2,0.3,3.2,0.8l2.4-3.6c-1.5-0.7-3.2-1-5.3-1
				c-3.8,0-7.9,1.9-8.5,6.1c-0.5,3,1.2,3.9,3,4.4c0.4,0.1,0.8,0.2,1.1,0.3c1.5,0.3,2.9,0.6,2.7,2c-0.2,1.2-1.6,1.6-2.4,1.6
				c-1.7,0-4-0.3-5.2-1l-1.8,3.4c1.8,1.2,3.8,1.7,6.2,1.7c3.7,0,8.4-1.7,9.1-6.4C136.1,17.7,134.8,16.2,131.5,15.5"/>
			<polygon style="clip-path:url(#SVGID_00000091015591275319996020000006373191711546467984_);fill:#373535;" points="41.9,-0.5 
				37.7,26.3 43.1,26.3 47.4,-0.5 			"/>
			<path style="clip-path:url(#SVGID_00000091015591275319996020000006373191711546467984_);fill:#373535;" d="M108,15.2
				c0.8-2,2.5-3.2,4.7-3.2c2,0,3.4,1.3,3.5,3.3l0,0.3h-8.3L108,15.2z M111.1,22.9c-1.4,0-2.4-0.4-3.1-1.1c-0.6-0.7-0.8-1.8-0.6-3.1
				l0-0.2h13.8l0.1-0.4c0.5-2.9,0-5.3-1.4-6.9c-1.4-1.7-3.8-2.6-6.8-2.6c-6,0-10.5,3.6-11.4,9.2c-0.4,2.6,0.1,4.8,1.4,6.4
				c1.5,1.8,4.1,2.8,7.4,2.8c3.1,0,7.5-1.5,9.9-5.6h-5.5C113.7,22.4,112.6,22.9,111.1,22.9"/>
			<path style="clip-path:url(#SVGID_00000091015591275319996020000006373191711546467984_);fill:#373535;" d="M134.6,39.7l-0.1-1.1
				c0-0.1,0-0.3,0-0.5h0c0,0.2-0.1,0.4-0.2,0.6l-0.3,1h-0.4l-0.3-1.1c0-0.1-0.1-0.4-0.1-0.5h0c0,0.2,0,0.3,0,0.5l-0.1,1.1h-0.4
				l0.1-1.9h0.6l0.3,0.9c0,0.1,0.1,0.3,0.1,0.5h0c0-0.2,0.1-0.3,0.1-0.5l0.3-0.9h0.5l0.1,1.9H134.6z M132.6,37.8v0.3H132v1.6h-0.4
				v-1.6H131v-0.3H132.6z"/>
			<path style="clip-path:url(#SVGID_00000091015591275319996020000006373191711546467984_);fill:#373535;" d="M82.3,36.8
				c-0.2,1.1-1.5,1.1-2.2,1.1h-0.3l0.3-2.1h0.3C81.2,35.7,82.5,35.6,82.3,36.8 M80.7,31.8h0.2c0.7,0,1.5,0.1,1.3,1
				c-0.1,0.8-0.9,1-1.5,1h-0.3L80.7,31.8z M83.2,34.5L83.2,34.5c0.9-0.4,1.3-1.2,1.4-2.1c0.3-1.9-0.8-2.6-2.5-2.6h-3.7l-1.6,10h4
				c1.8,0,3.7-0.7,4-2.8C85.1,35.6,84.6,34.7,83.2,34.5"/>
			<path style="clip-path:url(#SVGID_00000091015591275319996020000006373191711546467984_);fill:#373535;" d="M90.1,34.1L90.1,34.1
				l0.1-1.1h-2.4l-1.1,6.8h2.4l0.4-2.7c0.2-1.2,0.6-2,2-2c0.4,0,0.7,0,1,0.2l0.4-2.3h-0.5C91.5,32.9,90.7,33.3,90.1,34.1"/>
			<path style="clip-path:url(#SVGID_00000091015591275319996020000006373191711546467984_);fill:#373535;" d="M97.6,37.9
				c-1,0-1.4-0.7-1.3-1.5c0.1-0.8,0.8-1.5,1.8-1.5c1,0,1.4,0.7,1.3,1.5C99.3,37.3,98.6,37.9,97.6,37.9 M99.8,33.7
				c-0.4-0.6-1.2-0.9-2-0.9c-2,0-3.7,1.7-4,3.6c-0.3,1.9,0.8,3.6,2.8,3.6c0.8,0,1.7-0.3,2.2-1h0l-0.1,0.8h2.4l1.1-6.8h-2.4
				L99.8,33.7z"/>
			<path style="clip-path:url(#SVGID_00000091015591275319996020000006373191711546467984_);fill:#373535;" d="M109.6,32.8
				c-0.9,0-1.7,0.3-2.3,1.1h0l0.1-0.9h-2.4l-1.1,6.8h2.4l0.6-3.5c0.1-0.8,0.5-1.6,1.5-1.6c1.2,0,0.9,1.1,0.8,1.8l-0.5,3.3h2.4
				l0.7-4.2C111.9,34,111.4,32.8,109.6,32.8"/>
			<path style="clip-path:url(#SVGID_00000091015591275319996020000006373191711546467984_);fill:#373535;" d="M117.6,37.9
				c-1,0-1.4-0.7-1.3-1.5c0.1-0.8,0.8-1.5,1.8-1.5c1,0,1.4,0.7,1.3,1.5C119.2,37.3,118.6,37.9,117.6,37.9 M119.7,33.7
				c-0.4-0.6-1.2-0.9-2-0.9c-2,0-3.7,1.7-4,3.6c-0.3,1.9,0.8,3.6,2.8,3.6c0.8,0,1.7-0.3,2.2-1h0l-0.1,0.8h2.4l1.6-10h-2.4
				L119.7,33.7z"/>
			<path style="clip-path:url(#SVGID_00000091015591275319996020000006373191711546467984_);fill:#373535;" d="M127.7,34.4
				c0.4,0,0.9,0.1,1.2,0.3l1.1-1.5c-0.6-0.3-1.4-0.4-2.2-0.4c-1.5,0-3.1,0.7-3.4,2.4c-0.2,1.2,0.5,1.6,1.2,1.8
				c0.7,0.2,1.5,0.2,1.4,0.8c-0.1,0.4-0.5,0.5-0.8,0.5c-0.6,0-1.4-0.3-1.8-0.7l-1.1,1.7c0.7,0.5,1.6,0.8,2.6,0.8
				c1.6,0,3.3-0.7,3.6-2.5c0.2-1.3-0.6-1.8-1.6-2c-0.3-0.1-1.1-0.1-1-0.6C127,34.6,127.5,34.4,127.7,34.4"/>
		</g>
	</g>
</g>
</svg>
