<svg id="Livello_1" data-name="Livello 1" xmlns="http://www.w3.org/2000/svg" viewBox="0 0 679.59 590.3"><defs><style>.cls-1{fill:#107a72;}</style></defs><polygon class="cls-1" points="679.58 200.73 679.58 304.22 339.79 103.49 0 304.22 0 200.73 339.79 0 679.58 200.73"/><path class="cls-1" d="M56.19,510H30.06a81.74,81.74,0,0,1-3.51-23.9,85.74,85.74,0,0,1,3.51-24.14H56.19A163.18,163.18,0,0,0,56.19,510Z"/><path class="cls-1" d="M58.15,520.51C62,537.64,68.6,552.06,77.1,562.45a83,83,0,0,1-43-41.94Z"/><path class="cls-1" d="M58.15,451.37h-24a82.58,82.58,0,0,1,43-41.69C68.6,419.9,62,434.4,58.15,451.37Z"/><path class="cls-1" d="M103.23,404v47.38H69.09C75.38,426.16,88.28,407.54,103.23,404Z"/><path class="cls-1" d="M66.89,461.92h36.34v48H66.81A150.63,150.63,0,0,1,66.89,461.92Z"/><path class="cls-1" d="M69,520.51h34.22v47.54C88.28,564.51,75.38,545.8,69,520.51Z"/><path class="cls-1" d="M147.9,520.51c-6.29,25.29-19.19,44-34.22,47.54V520.51Z"/><path class="cls-1" d="M147.9,451.37H113.68V404C128.71,407.54,141.61,426.16,147.9,451.37Z"/><path class="cls-1" d="M150.1,510H113.68v-48H150.1A148.35,148.35,0,0,1,150.1,510Z"/><path class="cls-1" d="M158.76,451.37c-3.84-17-10.46-31.47-18.95-41.69a82.45,82.45,0,0,1,43,41.69Z"/><path class="cls-1" d="M158.84,520.51h24.09a82.82,82.82,0,0,1-43.12,41.94C148.39,552.06,155,537.64,158.84,520.51Z"/><path class="cls-1" d="M186.85,461.92a83.6,83.6,0,0,1,.08,48H160.8a168.82,168.82,0,0,0,0-48Z"/><path class="cls-1" d="M239.83,518.08h-7.9V527h7.9q5,0,5-4.39Q244.79,518.08,239.83,518.08Zm1.54,22.06h-9.44v9.53h9.44c3.48,0,5.21-1.6,5.21-4.81S244.85,540.14,241.37,540.14Zm0,0h-9.44v9.53h9.44c3.48,0,5.21-1.6,5.21-4.81S244.85,540.14,241.37,540.14Zm-1.54-22.06h-7.9V527h7.9q5,0,5-4.39Q244.79,518.08,239.83,518.08Zm0,0h-7.9V527h7.9q5,0,5-4.39Q244.79,518.08,239.83,518.08Zm1.54,22.06h-9.44v9.53h9.44c3.48,0,5.21-1.6,5.21-4.81S244.85,540.14,241.37,540.14Zm99.16-22.06h-7.9V527h7.9q5,0,5-4.39Q345.5,518.08,340.53,518.08Zm1.55,22.06h-9.45v9.53h9.45q5.21,0,5.21-4.81C347.29,541.72,345.55,540.14,342.08,540.14Zm0,0h-9.45v9.53h9.45q5.21,0,5.21-4.81C347.29,541.72,345.55,540.14,342.08,540.14Zm-1.55-22.06h-7.9V527h7.9q5,0,5-4.39Q345.5,518.08,340.53,518.08Zm-99.16,22.06h-9.44v9.53h9.44c3.48,0,5.21-1.6,5.21-4.81S244.85,540.14,241.37,540.14Zm-1.54-22.06h-7.9V527h7.9q5,0,5-4.39Q244.79,518.08,239.83,518.08Zm0,0h-7.9V527h7.9q5,0,5-4.39Q244.79,518.08,239.83,518.08Zm1.54,22.06h-9.44v9.53h9.44c3.48,0,5.21-1.6,5.21-4.81S244.85,540.14,241.37,540.14Zm99.16-22.06h-7.9V527h7.9q5,0,5-4.39Q345.5,518.08,340.53,518.08Zm1.55,22.06h-9.45v9.53h9.45q5.21,0,5.21-4.81C347.29,541.72,345.55,540.14,342.08,540.14Zm79.7-7.33a13.91,13.91,0,0,0-3.34-.32c-3.36,0-5.05,1.49-5.05,4.48v7.57q0,4.07,4.64,4.07c.49,0,1,0,1.51-.08s1-.13,1.51-.21a7.65,7.65,0,0,1,1-.12v-15A.38.38,0,0,0,421.78,532.81Zm0,0a13.91,13.91,0,0,0-3.34-.32c-3.36,0-5.05,1.49-5.05,4.48v7.57q0,4.07,4.64,4.07c.49,0,1,0,1.51-.08s1-.13,1.51-.21a7.65,7.65,0,0,1,1-.12v-15A.38.38,0,0,0,421.78,532.81Zm-79.7,7.33h-9.45v9.53h9.45q5.21,0,5.21-4.81C347.29,541.72,345.55,540.14,342.08,540.14Zm-1.55-22.06h-7.9V527h7.9q5,0,5-4.39Q345.5,518.08,340.53,518.08Zm-99.16,22.06h-9.44v9.53h9.44c3.48,0,5.21-1.6,5.21-4.81S244.85,540.14,241.37,540.14Zm-1.54-22.06h-7.9V527h7.9q5,0,5-4.39Q244.79,518.08,239.83,518.08Zm0,0h-7.9V527h7.9q5,0,5-4.39Q244.79,518.08,239.83,518.08Zm1.54,22.06h-9.44v9.53h9.44c3.48,0,5.21-1.6,5.21-4.81S244.85,540.14,241.37,540.14Zm99.16-22.06h-7.9V527h7.9q5,0,5-4.39Q345.5,518.08,340.53,518.08Zm1.55,22.06h-9.45v9.53h9.45q5.21,0,5.21-4.81C347.29,541.72,345.55,540.14,342.08,540.14Zm79.7-7.33a13.91,13.91,0,0,0-3.34-.32c-3.36,0-5.05,1.49-5.05,4.48v7.57q0,4.07,4.64,4.07c.49,0,1,0,1.51-.08s1-.13,1.51-.21a7.65,7.65,0,0,1,1-.12v-15A.38.38,0,0,0,421.78,532.81Zm67.49-.48q-5.06,0-5,4.39v9.93q0,4.32,5,4.32t5.13-4.32v-9.93Q494.4,532.32,489.27,532.33Zm0,0q-5.06,0-5,4.39v9.93q0,4.32,5,4.32t5.13-4.32v-9.93Q494.4,532.32,489.27,532.33Zm-67.49.48a13.91,13.91,0,0,0-3.34-.32c-3.36,0-5.05,1.49-5.05,4.48v7.57q0,4.07,4.64,4.07c.49,0,1,0,1.51-.08s1-.13,1.51-.21a7.65,7.65,0,0,1,1-.12v-15A.38.38,0,0,0,421.78,532.81Zm-79.7,7.33h-9.45v9.53h9.45q5.21,0,5.21-4.81C347.29,541.72,345.55,540.14,342.08,540.14Zm-1.55-22.06h-7.9V527h7.9q5,0,5-4.39Q345.5,518.08,340.53,518.08Zm-99.16,22.06h-9.44v9.53h9.44c3.48,0,5.21-1.6,5.21-4.81S244.85,540.14,241.37,540.14Zm-1.54-22.06h-7.9V527h7.9q5,0,5-4.39Q244.79,518.08,239.83,518.08Zm0,0h-7.9V527h7.9q5,0,5-4.39Q244.79,518.08,239.83,518.08Zm1.54,22.06h-9.44v9.53h9.44c3.48,0,5.21-1.6,5.21-4.81S244.85,540.14,241.37,540.14Zm99.16-22.06h-7.9V527h7.9q5,0,5-4.39Q345.5,518.08,340.53,518.08Zm1.55,22.06h-9.45v9.53h9.45q5.21,0,5.21-4.81C347.29,541.72,345.55,540.14,342.08,540.14Zm79.7-7.33a13.91,13.91,0,0,0-3.34-.32c-3.36,0-5.05,1.49-5.05,4.48v7.57q0,4.07,4.64,4.07c.49,0,1,0,1.51-.08s1-.13,1.51-.21a7.65,7.65,0,0,1,1-.12v-15A.38.38,0,0,0,421.78,532.81Zm67.49-.48q-5.06,0-5,4.39v9.93q0,4.32,5,4.32t5.13-4.32v-9.93Q494.4,532.32,489.27,532.33Zm87.52.16a13.9,13.9,0,0,0-3.75.4.45.45,0,0,0-.32.49v17.18a17.32,17.32,0,0,0,3.66.41q5.05,0,5-4.48v-10Q581.43,532.49,576.79,532.49Zm0,0a13.9,13.9,0,0,0-3.75.4.45.45,0,0,0-.32.49v17.18a17.32,17.32,0,0,0,3.66.41q5.05,0,5-4.48v-10Q581.43,532.49,576.79,532.49Zm-87.52-.16q-5.06,0-5,4.39v9.93q0,4.32,5,4.32t5.13-4.32v-9.93Q494.4,532.32,489.27,532.33Zm-67.49.48a13.91,13.91,0,0,0-3.34-.32c-3.36,0-5.05,1.49-5.05,4.48v7.57q0,4.07,4.64,4.07c.49,0,1,0,1.51-.08s1-.13,1.51-.21a7.65,7.65,0,0,1,1-.12v-15A.38.38,0,0,0,421.78,532.81Zm-79.7,7.33h-9.45v9.53h9.45q5.21,0,5.21-4.81C347.29,541.72,345.55,540.14,342.08,540.14Zm-1.55-22.06h-7.9V527h7.9q5,0,5-4.39Q345.5,518.08,340.53,518.08Zm-99.16,22.06h-9.44v9.53h9.44c3.48,0,5.21-1.6,5.21-4.81S244.85,540.14,241.37,540.14Zm-1.54-22.06h-7.9V527h7.9q5,0,5-4.39Q244.79,518.08,239.83,518.08Zm0,0h-7.9V527h7.9q5,0,5-4.39Q244.79,518.08,239.83,518.08Zm1.54,22.06h-9.44v9.53h9.44c3.48,0,5.21-1.6,5.21-4.81S244.85,540.14,241.37,540.14Zm99.16-22.06h-7.9V527h7.9q5,0,5-4.39Q345.5,518.08,340.53,518.08Zm1.55,22.06h-9.45v9.53h9.45q5.21,0,5.21-4.81C347.29,541.72,345.55,540.14,342.08,540.14Zm79.7-7.33a13.91,13.91,0,0,0-3.34-.32c-3.36,0-5.05,1.49-5.05,4.48v7.57q0,4.07,4.64,4.07c.49,0,1,0,1.51-.08s1-.13,1.51-.21a7.65,7.65,0,0,1,1-.12v-15A.38.38,0,0,0,421.78,532.81Zm67.49-.48q-5.06,0-5,4.39v9.93q0,4.32,5,4.32t5.13-4.32v-9.93Q494.4,532.32,489.27,532.33Zm87.52.16a13.9,13.9,0,0,0-3.75.4.45.45,0,0,0-.32.49v17.18a17.32,17.32,0,0,0,3.66.41q5.05,0,5-4.48v-10Q581.43,532.49,576.79,532.49Zm0,0a13.9,13.9,0,0,0-3.75.4.45.45,0,0,0-.32.49v17.18a17.32,17.32,0,0,0,3.66.41q5.05,0,5-4.48v-10Q581.43,532.49,576.79,532.49Zm-87.52-.16q-5.06,0-5,4.39v9.93q0,4.32,5,4.32t5.13-4.32v-9.93Q494.4,532.32,489.27,532.33Zm-67.49.48a13.91,13.91,0,0,0-3.34-.32c-3.36,0-5.05,1.49-5.05,4.48v7.57q0,4.07,4.64,4.07c.49,0,1,0,1.51-.08s1-.13,1.51-.21a7.65,7.65,0,0,1,1-.12v-15A.38.38,0,0,0,421.78,532.81Zm-79.7,7.33h-9.45v9.53h9.45q5.21,0,5.21-4.81C347.29,541.72,345.55,540.14,342.08,540.14Zm3.42-17.5q0-4.56-5-4.56h-7.9V527h7.9Q345.5,527,345.5,522.64Zm-104.13,17.5h-9.44v9.53h9.44c3.48,0,5.21-1.6,5.21-4.81S244.85,540.14,241.37,540.14Zm3.42-17.5q0-4.56-5-4.56h-7.9V527h7.9Q244.79,527,244.79,522.64Zm342.68-164L339.8,212.33l-89.26,52.73,2.78,1.65,244.9,144.62-63,37.24-29,17.14L161.29,321.1,0,416.35V590.3H679.59V413.06Zm-479,220.59c-51,0-92.36-41.78-92.36-93.2a92.9,92.9,0,0,1,5.15-30.65c.08-.33.16-.66.24-.91,12.9-35.92,47-61.71,87-61.71s74.15,25.79,87,61.71a2.42,2.42,0,0,1,.33,1,92.77,92.77,0,0,1,5.14,30.57C200.89,537.48,159.41,579.26,108.45,579.26Zm149.49-20.64q-5.58,4.23-14.45,4.23H219.31a3.81,3.81,0,0,1-2.73-.77,3.68,3.68,0,0,1-.77-2.64v-51a2.9,2.9,0,0,1,3.5-3.5h23.85q8.47,0,13.23,4t4.77,11.44q0,8-5.87,12v.32q8.23,3.59,8.23,14Q263.52,554.39,257.94,558.62Zm48.72-9.52a2.91,2.91,0,0,1,3.51,3.5v6.84a3.64,3.64,0,0,1-.78,2.64,3.78,3.78,0,0,1-2.73.77H270a3.81,3.81,0,0,1-2.73-.77,3.68,3.68,0,0,1-.77-2.64v-6.52a17.83,17.83,0,0,1,1.26-6.92,13.09,13.09,0,0,1,3.95-5.17,35.62,35.62,0,0,1,4.8-3.33,60.26,60.26,0,0,1,5.78-2.73c1.9-.82,3.2-1.39,3.91-1.71s1.78-.88,3.22-1.67a12.15,12.15,0,0,0,3-2.12,11,11,0,0,0,1.63-2.48,7.42,7.42,0,0,0,.77-3.34,5.33,5.33,0,0,0-1.47-3.87,5.41,5.41,0,0,0-4.07-1.5,6.58,6.58,0,0,0-4.11,1.22,11.15,11.15,0,0,0-3,4.15,5,5,0,0,1-1.71,2.36,3.91,3.91,0,0,1-2.68-.16l-8.63-3.18a3.83,3.83,0,0,1-2.28-1.62,3.54,3.54,0,0,1,.16-2.77q5.61-14.25,22.71-14.25,9.93,0,15.72,5.37a17.7,17.7,0,0,1,5.78,13.52c0,6-1.42,10.56-4.24,13.59s-7.54,5.73-14.16,8.06c-.71.22-1.59.48-2.65.78s-1.94.55-2.65.77-1.42.46-2.15.73a4.94,4.94,0,0,0-1.63.9,1.45,1.45,0,0,0-.53,1.06v.49Zm52,9.52q-5.58,4.23-14.45,4.23H320a3.78,3.78,0,0,1-2.73-.77,3.64,3.64,0,0,1-.77-2.64v-51A2.9,2.9,0,0,1,320,505h23.85q8.46,0,13.23,4t4.76,11.44q0,8-5.86,12v.32q8.22,3.59,8.22,14Q364.22,554.39,358.65,558.62Zm35.21-13.84a3.65,3.65,0,0,1-.78,2.69,3.79,3.79,0,0,1-2.64.73H371.55a3.82,3.82,0,0,1-2.65-.73,3.69,3.69,0,0,1-.77-2.69v-6.92a3.69,3.69,0,0,1,.77-2.69,3.87,3.87,0,0,1,2.65-.73h18.89a3.84,3.84,0,0,1,2.64.73,3.65,3.65,0,0,1,.78,2.69Zm43.39,18q0,8.64-4.76,13.72t-14.86,5.09q-13,0-18.16-8.06c-1.25-1.95-.73-3.53,1.55-4.72l6.84-3.34c1.84-.92,3.31-.65,4.39.81a6.62,6.62,0,0,0,5.3,2.94q4.47,0,4.47-4.73v-3.25a38.84,38.84,0,0,1-5.53.48q-9.21,0-13.76-4.51c-3-3-4.56-7.34-4.56-13V537.7q0-9,5-13.72T418,519.3q10.19,0,16,2.77a5.91,5.91,0,0,1,2.61,1.79,5.67,5.67,0,0,1,.57,2.93Zm30.69-33.46a3.68,3.68,0,0,1-.65,2.49,3.34,3.34,0,0,1-2.44.69h-3.1a19,19,0,0,0-3.74.32c-.27,0-.41.17-.41.49v26.46a3.34,3.34,0,0,1-.69,2.4,3.49,3.49,0,0,1-2.48.69h-8.88a3.49,3.49,0,0,1-2.48-.69,3.34,3.34,0,0,1-.69-2.4v-33a5.46,5.46,0,0,1,.69-3,5.9,5.9,0,0,1,2.73-1.84q5.94-2.26,16.52-2.6h2.53a3.34,3.34,0,0,1,2.44.69,3.5,3.5,0,0,1,.65,2.4Zm41.52,16.94q0,8.46-5.17,13.14t-15,4.69q-9.76,0-15-4.73t-5.21-13.1v-9.12q0-8.39,5.21-13.11t15-4.72q9.86,0,15,4.68t5.17,13.15Zm42.9,9.93a5.67,5.67,0,0,1-.65,3.05,5.52,5.52,0,0,1-2.68,1.83,47.08,47.08,0,0,1-17.35,3q-9.2,0-13.75-4.56t-4.56-13V523.61a3.45,3.45,0,0,1,.65-2.4,3.32,3.32,0,0,1,2.44-.69h9a3.34,3.34,0,0,1,2.44.69,3.5,3.5,0,0,1,.65,2.4v22.31q0,4.49,4.88,4.48a16.39,16.39,0,0,0,3.26-.33c.38-.05.57-.29.57-.73V523.61a2.58,2.58,0,0,1,3.09-3.09h9a3.32,3.32,0,0,1,2.44.69,3.45,3.45,0,0,1,.65,2.4Zm44.21-10.5q0,9-4.8,13.71t-14.17,4.69c-.7,0-2.33-.14-4.88-.41v13.92A3.28,3.28,0,0,1,572,580a3.58,3.58,0,0,1-2.48.65h-8.87a3.63,3.63,0,0,1-2.49-.65,3.32,3.32,0,0,1-.69-2.44v-50.8a5.12,5.12,0,0,1,.65-2.93,6.76,6.76,0,0,1,2.77-1.79,46.28,46.28,0,0,1,17-2.77q9.36,0,14,4.56t4.64,13Zm19.54,11.48c0,2.38-.46,4-1.39,5s-2.57,1.39-5,1.39h-3.1c-2.44,0-4.12-.47-5-1.39s-1.39-2.58-1.39-5v-3.34q0-3.59,1.39-5t5-1.42h3.1q3.59,0,5,1.42t1.39,5Zm19.94,2.6a3.34,3.34,0,0,1-.69,2.4,3.49,3.49,0,0,1-2.48.69H624a3.49,3.49,0,0,1-2.48-.69,3.34,3.34,0,0,1-.69-2.4V523.61a3.34,3.34,0,0,1,.69-2.4,3.49,3.49,0,0,1,2.48-.69h8.88a3.49,3.49,0,0,1,2.48.69,3.34,3.34,0,0,1,.69,2.4Zm.49-48.76c0,2.27-.43,3.85-1.3,4.72s-2.44,1.3-4.72,1.3h-4.07q-3.51,0-4.81-1.3c-.87-.87-1.3-2.45-1.3-4.72v-.9q0-3.42,1.3-4.72t4.81-1.3h4.07q3.42,0,4.72,1.3t1.3,4.72Zm32.57,18.72a3.65,3.65,0,0,1-.65,2.48,3.31,3.31,0,0,1-2.45.69H660.4v12c0,2.17.4,3.67,1.22,4.48s2.25,1.22,4.31,1.22a3.5,3.5,0,0,1,2.53.69,3.67,3.67,0,0,1,.65,2.49v7a3.65,3.65,0,0,1-.65,2.48,3.5,3.5,0,0,1-2.53.69q-10.83.17-15.79-3.91t-5-14.08v-13h-3.5a3.28,3.28,0,0,1-2.44-.69,3.6,3.6,0,0,1-.65-2.48v-6.11a3.45,3.45,0,0,1,.65-2.4,3.32,3.32,0,0,1,2.44-.69h3.5v-6.68a3.36,3.36,0,0,1,.69-2.4,3.5,3.5,0,0,1,2.49-.69h8.87a3.49,3.49,0,0,1,2.48.69,3.36,3.36,0,0,1,.7,2.4v6.68H666a3.35,3.35,0,0,1,2.45.69,3.5,3.5,0,0,1,.65,2.4Zm-92.32,2.77a13.9,13.9,0,0,0-3.75.4.45.45,0,0,0-.32.49v17.18a17.32,17.32,0,0,0,3.66.41q5.05,0,5-4.48v-10Q581.43,532.49,576.79,532.49Zm-87.52-.16q-5.06,0-5,4.39v9.93q0,4.32,5,4.32t5.13-4.32v-9.93Q494.4,532.32,489.27,532.33Zm-67.49.48a13.91,13.91,0,0,0-3.34-.32c-3.36,0-5.05,1.49-5.05,4.48v7.57q0,4.07,4.64,4.07c.49,0,1,0,1.51-.08s1-.13,1.51-.21a7.65,7.65,0,0,1,1-.12v-15A.38.38,0,0,0,421.78,532.81Zm-79.7,7.33h-9.45v9.53h9.45q5.21,0,5.21-4.81C347.29,541.72,345.55,540.14,342.08,540.14Zm3.42-17.5q0-4.56-5-4.56h-7.9V527h7.9Q345.5,527,345.5,522.64Zm-104.13,17.5h-9.44v9.53h9.44c3.48,0,5.21-1.6,5.21-4.81S244.85,540.14,241.37,540.14Zm3.42-17.5q0-4.56-5-4.56h-7.9V527h7.9Q244.79,527,244.79,522.64Zm-5-4.56h-7.9V527h7.9q5,0,5-4.39Q244.79,518.08,239.83,518.08Zm1.54,22.06h-9.44v9.53h9.44c3.48,0,5.21-1.6,5.21-4.81S244.85,540.14,241.37,540.14Zm99.16-22.06h-7.9V527h7.9q5,0,5-4.39Q345.5,518.08,340.53,518.08Zm1.55,22.06h-9.45v9.53h9.45q5.21,0,5.21-4.81C347.29,541.72,345.55,540.14,342.08,540.14Zm79.7-7.33a13.91,13.91,0,0,0-3.34-.32c-3.36,0-5.05,1.49-5.05,4.48v7.57q0,4.07,4.64,4.07c.49,0,1,0,1.51-.08s1-.13,1.51-.21a7.65,7.65,0,0,1,1-.12v-15A.38.38,0,0,0,421.78,532.81Zm67.49-.48q-5.06,0-5,4.39v9.93q0,4.32,5,4.32t5.13-4.32v-9.93Q494.4,532.32,489.27,532.33Zm87.52.16a13.9,13.9,0,0,0-3.75.4.45.45,0,0,0-.32.49v17.18a17.32,17.32,0,0,0,3.66.41q5.05,0,5-4.48v-10Q581.43,532.49,576.79,532.49Zm0,0a13.9,13.9,0,0,0-3.75.4.45.45,0,0,0-.32.49v17.18a17.32,17.32,0,0,0,3.66.41q5.05,0,5-4.48v-10Q581.43,532.49,576.79,532.49Zm-87.52-.16q-5.06,0-5,4.39v9.93q0,4.32,5,4.32t5.13-4.32v-9.93Q494.4,532.32,489.27,532.33Zm-67.49.48a13.91,13.91,0,0,0-3.34-.32c-3.36,0-5.05,1.49-5.05,4.48v7.57q0,4.07,4.64,4.07c.49,0,1,0,1.51-.08s1-.13,1.51-.21a7.65,7.65,0,0,1,1-.12v-15A.38.38,0,0,0,421.78,532.81Zm-79.7,7.33h-9.45v9.53h9.45q5.21,0,5.21-4.81C347.29,541.72,345.55,540.14,342.08,540.14Zm-1.55-22.06h-7.9V527h7.9q5,0,5-4.39Q345.5,518.08,340.53,518.08Zm-99.16,22.06h-9.44v9.53h9.44c3.48,0,5.21-1.6,5.21-4.81S244.85,540.14,241.37,540.14Zm-1.54-22.06h-7.9V527h7.9q5,0,5-4.39Q244.79,518.08,239.83,518.08Zm0,0h-7.9V527h7.9q5,0,5-4.39Q244.79,518.08,239.83,518.08Zm1.54,22.06h-9.44v9.53h9.44c3.48,0,5.21-1.6,5.21-4.81S244.85,540.14,241.37,540.14Zm99.16-22.06h-7.9V527h7.9q5,0,5-4.39Q345.5,518.08,340.53,518.08Zm1.55,22.06h-9.45v9.53h9.45q5.21,0,5.21-4.81C347.29,541.72,345.55,540.14,342.08,540.14Zm79.7-7.33a13.91,13.91,0,0,0-3.34-.32c-3.36,0-5.05,1.49-5.05,4.48v7.57q0,4.07,4.64,4.07c.49,0,1,0,1.51-.08s1-.13,1.51-.21a7.65,7.65,0,0,1,1-.12v-15A.38.38,0,0,0,421.78,532.81Zm67.49-.48q-5.06,0-5,4.39v9.93q0,4.32,5,4.32t5.13-4.32v-9.93Q494.4,532.32,489.27,532.33Zm87.52.16a13.9,13.9,0,0,0-3.75.4.45.45,0,0,0-.32.49v17.18a17.32,17.32,0,0,0,3.66.41q5.05,0,5-4.48v-10Q581.43,532.49,576.79,532.49Zm0,0a13.9,13.9,0,0,0-3.75.4.45.45,0,0,0-.32.49v17.18a17.32,17.32,0,0,0,3.66.41q5.05,0,5-4.48v-10Q581.43,532.49,576.79,532.49Zm-87.52-.16q-5.06,0-5,4.39v9.93q0,4.32,5,4.32t5.13-4.32v-9.93Q494.4,532.32,489.27,532.33Zm-67.49.48a13.91,13.91,0,0,0-3.34-.32c-3.36,0-5.05,1.49-5.05,4.48v7.57q0,4.07,4.64,4.07c.49,0,1,0,1.51-.08s1-.13,1.51-.21a7.65,7.65,0,0,1,1-.12v-15A.38.38,0,0,0,421.78,532.81Zm-79.7,7.33h-9.45v9.53h9.45q5.21,0,5.21-4.81C347.29,541.72,345.55,540.14,342.08,540.14Zm-1.55-22.06h-7.9V527h7.9q5,0,5-4.39Q345.5,518.08,340.53,518.08Zm-99.16,22.06h-9.44v9.53h9.44c3.48,0,5.21-1.6,5.21-4.81S244.85,540.14,241.37,540.14Zm-1.54-22.06h-7.9V527h7.9q5,0,5-4.39Q244.79,518.08,239.83,518.08Zm0,0h-7.9V527h7.9q5,0,5-4.39Q244.79,518.08,239.83,518.08Zm1.54,22.06h-9.44v9.53h9.44c3.48,0,5.21-1.6,5.21-4.81S244.85,540.14,241.37,540.14Zm99.16-22.06h-7.9V527h7.9q5,0,5-4.39Q345.5,518.08,340.53,518.08Zm1.55,22.06h-9.45v9.53h9.45q5.21,0,5.21-4.81C347.29,541.72,345.55,540.14,342.08,540.14Zm79.7-7.33a13.91,13.91,0,0,0-3.34-.32c-3.36,0-5.05,1.49-5.05,4.48v7.57q0,4.07,4.64,4.07c.49,0,1,0,1.51-.08s1-.13,1.51-.21a7.65,7.65,0,0,1,1-.12v-15A.38.38,0,0,0,421.78,532.81Zm67.49-.48q-5.06,0-5,4.39v9.93q0,4.32,5,4.32t5.13-4.32v-9.93Q494.4,532.32,489.27,532.33Zm0,0q-5.06,0-5,4.39v9.93q0,4.32,5,4.32t5.13-4.32v-9.93Q494.4,532.32,489.27,532.33Zm-67.49.48a13.91,13.91,0,0,0-3.34-.32c-3.36,0-5.05,1.49-5.05,4.48v7.57q0,4.07,4.64,4.07c.49,0,1,0,1.51-.08s1-.13,1.51-.21a7.65,7.65,0,0,1,1-.12v-15A.38.38,0,0,0,421.78,532.81Zm-79.7,7.33h-9.45v9.53h9.45q5.21,0,5.21-4.81C347.29,541.72,345.55,540.14,342.08,540.14Zm-1.55-22.06h-7.9V527h7.9q5,0,5-4.39Q345.5,518.08,340.53,518.08Zm-99.16,22.06h-9.44v9.53h9.44c3.48,0,5.21-1.6,5.21-4.81S244.85,540.14,241.37,540.14Zm-1.54-22.06h-7.9V527h7.9q5,0,5-4.39Q244.79,518.08,239.83,518.08Zm0,0h-7.9V527h7.9q5,0,5-4.39Q244.79,518.08,239.83,518.08Zm1.54,22.06h-9.44v9.53h9.44c3.48,0,5.21-1.6,5.21-4.81S244.85,540.14,241.37,540.14Zm99.16-22.06h-7.9V527h7.9q5,0,5-4.39Q345.5,518.08,340.53,518.08Zm1.55,22.06h-9.45v9.53h9.45q5.21,0,5.21-4.81C347.29,541.72,345.55,540.14,342.08,540.14Zm79.7-7.33a13.91,13.91,0,0,0-3.34-.32c-3.36,0-5.05,1.49-5.05,4.48v7.57q0,4.07,4.64,4.07c.49,0,1,0,1.51-.08s1-.13,1.51-.21a7.65,7.65,0,0,1,1-.12v-15A.38.38,0,0,0,421.78,532.81Zm0,0a13.91,13.91,0,0,0-3.34-.32c-3.36,0-5.05,1.49-5.05,4.48v7.57q0,4.07,4.64,4.07c.49,0,1,0,1.51-.08s1-.13,1.51-.21a7.65,7.65,0,0,1,1-.12v-15A.38.38,0,0,0,421.78,532.81Zm-79.7,7.33h-9.45v9.53h9.45q5.21,0,5.21-4.81C347.29,541.72,345.55,540.14,342.08,540.14Zm-1.55-22.06h-7.9V527h7.9q5,0,5-4.39Q345.5,518.08,340.53,518.08Zm-99.16,22.06h-9.44v9.53h9.44c3.48,0,5.21-1.6,5.21-4.81S244.85,540.14,241.37,540.14Zm-1.54-22.06h-7.9V527h7.9q5,0,5-4.39Q244.79,518.08,239.83,518.08Zm0,0h-7.9V527h7.9q5,0,5-4.39Q244.79,518.08,239.83,518.08Zm1.54,22.06h-9.44v9.53h9.44c3.48,0,5.21-1.6,5.21-4.81S244.85,540.14,241.37,540.14Zm99.16-22.06h-7.9V527h7.9q5,0,5-4.39Q345.5,518.08,340.53,518.08Zm1.55,22.06h-9.45v9.53h9.45q5.21,0,5.21-4.81C347.29,541.72,345.55,540.14,342.08,540.14Zm0,0h-9.45v9.53h9.45q5.21,0,5.21-4.81C347.29,541.72,345.55,540.14,342.08,540.14Zm-1.55-22.06h-7.9V527h7.9q5,0,5-4.39Q345.5,518.08,340.53,518.08Zm-99.16,22.06h-9.44v9.53h9.44c3.48,0,5.21-1.6,5.21-4.81S244.85,540.14,241.37,540.14Zm-1.54-22.06h-7.9V527h7.9q5,0,5-4.39Q244.79,518.08,239.83,518.08Zm0,0h-7.9V527h7.9q5,0,5-4.39Q244.79,518.08,239.83,518.08Zm1.54,22.06h-9.44v9.53h9.44c3.48,0,5.21-1.6,5.21-4.81S244.85,540.14,241.37,540.14Zm0,0h-9.44v9.53h9.44c3.48,0,5.21-1.6,5.21-4.81S244.85,540.14,241.37,540.14Zm-1.54-22.06h-7.9V527h7.9q5,0,5-4.39Q244.79,518.08,239.83,518.08Z"/></svg>