<?xml version="1.0" encoding="UTF-8"?>
<svg id="Livello_1" data-name="Livello 1" xmlns="http://www.w3.org/2000/svg" viewBox="0 0 623.59 76.2">
  <defs>
    <style>
      .cls-1 {
        fill: #fb933c;
      }

      .cls-2 {
        fill: #18181b;
      }
    </style>
  </defs>
  <path class="cls-2" d="M72,10.7c9,0,16.43.87,22.3,2.6,5.87,1.73,10.47,4.1,13.8,7.1,3.33,3,5.68,6.42,7.05,10.25,1.37,3.83,2.05,7.85,2.05,12.05s-.77,8.22-2.3,12.05c-1.53,3.83-4.05,7.25-7.55,10.25s-8.13,5.37-13.9,7.1c-5.77,1.73-12.92,2.6-21.45,2.6H0V10.7h72ZM25,54.7h46c3.73,0,6.9-.25,9.5-.75s4.68-1.25,6.25-2.25c1.57-1,2.7-2.25,3.4-3.75.7-1.5,1.05-3.25,1.05-5.25s-.35-3.75-1.05-5.25c-.7-1.5-1.83-2.75-3.4-3.75-1.57-1-3.65-1.75-6.25-2.25s-5.77-.75-9.5-.75H25v24Z"/>
  <path class="cls-2" d="M148.3,0v15h-25.4V0h25.4ZM123.6,25.7h24v49h-24V25.7Z"/>
  <path class="cls-2" d="M150,25.7h58.8v15h-58.8v-15ZM167.4,10.7h24v64h-24V10.7Z"/>
  <path class="cls-2" d="M207,25.7h58.8v15h-58.8v-15ZM224.4,10.7h24v64h-24V10.7Z"/>
  <path class="cls-2" d="M302.8,76.1c-7.2,0-13.6-1.02-19.2-3.05s-10.02-4.98-13.25-8.85c-3.23-3.87-4.85-8.53-4.85-14s1.62-10.53,4.85-14.4c3.23-3.87,7.65-6.77,13.25-8.7,5.6-1.93,12-2.9,19.2-2.9,8,0,14.92,1.08,20.75,3.25,5.83,2.17,10.33,5.2,13.5,9.1,3.17,3.9,4.75,8.45,4.75,13.65,0,3.87-.9,7.38-2.7,10.55-1.8,3.17-4.4,5.9-7.8,8.2-3.4,2.3-7.5,4.07-12.3,5.3-4.8,1.23-10.2,1.85-16.2,1.85ZM311.8,60.9c5.07,0,9.72-.32,13.95-.95,4.23-.63,7.63-1.72,10.2-3.25,2.57-1.53,3.85-3.7,3.85-6.5s-1.28-5.07-3.85-6.6c-2.57-1.53-5.97-2.6-10.2-3.2-4.23-.6-8.88-.9-13.95-.9-6.8,0-12.07.88-15.8,2.65-3.73,1.77-5.6,4.45-5.6,8.05,0,2.33.83,4.3,2.5,5.9,1.67,1.6,4.1,2.8,7.3,3.6,3.2.8,7.07,1.2,11.6,1.2ZM339.8,25.7h24v49h-22.6c-.47-3.07-.82-6.03-1.05-8.9-.23-2.87-.35-6.23-.35-10.1v-30Z"/>
  <path class="cls-1" d="M369.5,74.7V2.7h42v8.9h-33.1v22.65h27.1v8.9h-27.1v31.55h-8.9Z"/>
  <path class="cls-1" d="M433.99,76.2c-5.3,0-9.93-1.17-13.88-3.52-3.95-2.35-7.03-5.63-9.23-9.85-2.2-4.22-3.3-9.14-3.3-14.77s1.08-11.01,3.25-15.33c2.17-4.32,5.19-7.65,9.08-10,3.88-2.35,8.44-3.52,13.67-3.52s10.06,1.25,13.88,3.75c3.82,2.5,6.68,6.07,8.6,10.7,1.92,4.63,2.74,10.15,2.48,16.55h-9v-3.2c-.1-6.63-1.45-11.59-4.05-14.88-2.6-3.28-6.47-4.92-11.6-4.92-5.5,0-9.68,1.77-12.55,5.3-2.87,3.53-4.3,8.6-4.3,15.2s1.43,11.3,4.3,14.8c2.87,3.5,6.95,5.25,12.25,5.25,3.57,0,6.67-.82,9.3-2.45,2.63-1.63,4.7-3.98,6.2-7.05l8.55,2.95c-2.1,4.77-5.26,8.46-9.47,11.08-4.22,2.62-8.94,3.92-14.17,3.92ZM414.04,50.2v-7.15h39.9v7.15h-39.9Z"/>
  <path class="cls-1" d="M461.24,74.7V20.7h7.95v13.05l-1.3-1.7c.63-1.67,1.46-3.2,2.47-4.6,1.02-1.4,2.16-2.55,3.42-3.45,1.4-1.13,2.98-1.99,4.75-2.57,1.77-.58,3.57-.93,5.4-1.05,1.83-.12,3.55,0,5.15.33v8.35c-1.87-.47-3.92-.58-6.15-.35-2.23.23-4.3,1.03-6.2,2.4-1.73,1.27-3.08,2.77-4.03,4.52-.95,1.75-1.61,3.65-1.97,5.7-.37,2.05-.55,4.14-.55,6.27v27.1h-8.95Z"/>
  <path class="cls-1" d="M490.19,74.7V20.7h7.95v13.05l-1.3-1.7c.63-1.67,1.46-3.2,2.47-4.6,1.02-1.4,2.16-2.55,3.42-3.45,1.4-1.13,2.98-1.99,4.75-2.57,1.77-.58,3.57-.93,5.4-1.05,1.83-.12,3.55,0,5.15.33v8.35c-1.87-.47-3.92-.58-6.15-.35-2.23.23-4.3,1.03-6.2,2.4-1.73,1.27-3.08,2.77-4.03,4.52-.95,1.75-1.61,3.65-1.97,5.7-.37,2.05-.55,4.14-.55,6.27v27.1h-8.95Z"/>
  <path class="cls-1" d="M541.14,76.2c-5.37,0-9.99-1.22-13.88-3.65-3.88-2.43-6.88-5.79-8.97-10.08-2.1-4.28-3.15-9.23-3.15-14.82s1.07-10.59,3.2-14.88c2.13-4.28,5.15-7.62,9.05-10,3.9-2.38,8.48-3.58,13.75-3.58s10.05,1.22,13.95,3.65c3.9,2.43,6.89,5.78,8.97,10.05,2.08,4.27,3.12,9.18,3.12,14.75s-1.05,10.59-3.15,14.88c-2.1,4.28-5.1,7.63-9,10.05-3.9,2.42-8.53,3.62-13.9,3.62ZM541.14,67.75c5.57,0,9.72-1.87,12.47-5.6,2.75-3.73,4.12-8.57,4.12-14.5s-1.38-10.92-4.15-14.55c-2.77-3.63-6.92-5.45-12.45-5.45-3.77,0-6.87.85-9.3,2.55-2.43,1.7-4.25,4.05-5.45,7.05s-1.8,6.47-1.8,10.4c0,6.07,1.4,10.93,4.2,14.6,2.8,3.67,6.92,5.5,12.35,5.5Z"/>
  <path class="cls-1" d="M589.44,76.15c-6.43,0-11.71-1.41-15.83-4.23-4.12-2.82-6.64-6.76-7.58-11.83l9.1-1.45c.73,2.93,2.42,5.26,5.05,6.97,2.63,1.72,5.9,2.58,9.8,2.58,3.67,0,6.56-.77,8.67-2.3,2.12-1.53,3.17-3.62,3.17-6.25,0-1.5-.35-2.73-1.05-3.68-.7-.95-2.14-1.84-4.33-2.67-2.18-.83-5.47-1.85-9.88-3.05-4.77-1.27-8.52-2.57-11.25-3.92s-4.68-2.92-5.85-4.73c-1.17-1.8-1.75-4-1.75-6.6,0-3.17.87-5.93,2.6-8.3,1.73-2.37,4.16-4.21,7.28-5.52,3.12-1.32,6.74-1.98,10.88-1.98s7.77.65,11,1.95c3.23,1.3,5.84,3.14,7.83,5.52,1.98,2.38,3.16,5.16,3.52,8.32l-9.1,1.65c-.43-2.87-1.83-5.14-4.2-6.83-2.37-1.68-5.38-2.58-9.05-2.67-3.5-.1-6.34.53-8.53,1.9-2.18,1.37-3.27,3.2-3.27,5.5,0,1.33.41,2.46,1.22,3.38.82.92,2.33,1.79,4.55,2.62,2.22.83,5.44,1.78,9.67,2.85,4.77,1.2,8.53,2.51,11.28,3.92,2.75,1.42,4.71,3.08,5.88,5,1.17,1.92,1.75,4.27,1.75,7.08,0,5.2-1.92,9.29-5.75,12.27-3.83,2.98-9.12,4.48-15.85,4.48Z"/>
  <path class="cls-1" d="M614.69,11.15V1.95h8.9v9.2h-8.9ZM614.69,74.7V20.7h8.9v54h-8.9Z"/>
</svg>