<?xml version="1.0" encoding="UTF-8"?>
<svg id="Livello_1" data-name="Livello 1" xmlns="http://www.w3.org/2000/svg" viewBox="0 0 512 512">
  <defs>
    <style>
      .cls-1 {
        fill: #232326;
      }

      .cls-2 {
        fill: #fb933c;
      }

      .cls-3 {
        fill: #fff;
      }
    </style>
  </defs>
  <circle class="cls-3" cx="256" cy="256" r="256"/>
  <path class="cls-1" d="M338.06,216.73c-4.41-12.39-12.01-23.45-22.8-33.15-10.79-9.7-25.66-17.35-44.64-22.96-18.99-5.61-43.01-8.42-72.13-8.42H47.56v207.04h150.93c27.59,0,50.72-2.81,69.38-8.42,18.66-5.61,33.64-13.27,44.97-22.96,11.33-9.72,19.45-20.76,24.43-33.18,4.96-12.39,7.44-25.39,7.44-38.98s-2.21-26.56-6.65-38.98ZM257.19,272.7c-2.26,4.85-5.94,8.88-10.98,12.12-5.09,3.24-11.82,5.67-20.24,7.27-8.42,1.63-18.66,2.42-30.73,2.42h-66.82v-77.63h66.82c12.07,0,22.31.82,30.73,2.42,8.42,1.63,15.14,4.06,20.24,7.3,5.04,3.21,8.72,7.27,10.98,12.12,2.26,4.85,3.4,10.51,3.4,16.97s-1.14,12.15-3.4,17Z"/>
  <path class="cls-2" d="M464.96,177.79v-25.59h-116.18v207.04h24.61v-90.74h74.97v-25.59h-74.97v-65.12h91.56Z"/>
</svg>